<?xml version="1.0" encoding="utf-8"?>
<!-- Generator: Adobe Illustrator 16.0.4, SVG Export Plug-In . SVG Version: 6.00 Build 0)  -->
<!DOCTYPE svg PUBLIC "-//W3C//DTD SVG 1.1//EN" "http://www.w3.org/Graphics/SVG/1.1/DTD/svg11.dtd">
<svg version="1.1" id="Layer_1" xmlns="http://www.w3.org/2000/svg" xmlns:xlink="http://www.w3.org/1999/xlink" x="0px" y="0px"
	 width="768px" height="768px" viewBox="0 0 768 768" enable-background="new 0 0 768 768" xml:space="preserve">
<path d="M307.649,466.325c41.36,0,77.325-35.965,77.325-77.324c0-41.36-35.965-77.325-77.325-77.325
	c-41.359,0-75.526,35.965-75.526,77.325C232.123,430.36,266.29,466.325,307.649,466.325z M307.649,81.501
	c169.035,0,307.5,138.465,307.5,307.5s-138.465,307.5-307.5,307.5S1.948,558.036,1.948,389.001S138.614,81.501,307.649,81.501z
	 M692.475,196.589H768v192.412h-75.525V196.589z M692.475,541.852v-75.526H768v75.526H692.475z"/>
</svg>
