<?xml version="1.0" encoding="utf-8"?>
<!-- Generator: Adobe Illustrator 16.0.4, SVG Export Plug-In . SVG Version: 6.00 Build 0)  -->
<!DOCTYPE svg PUBLIC "-//W3C//DTD SVG 1.1//EN" "http://www.w3.org/Graphics/SVG/1.1/DTD/svg11.dtd">
<svg version="1.1" id="Layer_1" xmlns="http://www.w3.org/2000/svg" xmlns:xlink="http://www.w3.org/1999/xlink" x="0px" y="0px"
	 width="512px" height="512px" viewBox="0 0 512 512" enable-background="new 0 0 512 512" xml:space="preserve">
<path fill="#22517F" d="M55.119,93.309c0-18.281,19.345-33.818,58.04-46.615C151.85,33.898,198.465,27.5,253,27.5
	c54.84,0,101.527,6.398,140.068,19.193c38.54,12.795,57.812,28.334,57.812,46.615c0,3.656-10.968,70.682-32.904,201.08
	c-2.741,14.015-19.65,27.571-50.727,40.673c-31.077,13.102-69.16,19.65-114.25,19.65c-45.093,0-83.174-6.55-114.25-19.65
	c-31.076-13.102-47.834-26.658-50.271-40.673C66.239,168.256,55.119,101.229,55.119,93.309z M104.017,358.825v-1.828
	c0-5.178,2.286-7.771,6.854-7.771c1.83,0,3.658,0.764,5.484,2.287c14.32,11.272,32.904,20.107,55.754,26.505
	c22.852,6.398,42.044,9.902,57.582,10.512L253,389.9c2.437,0,5.712-0.076,9.823-0.229c4.113-0.151,12.11-0.914,23.994-2.285
	c11.881-1.372,23.229-3.274,34.046-5.713c10.815-2.437,22.772-6.245,35.874-11.425c13.103-5.18,24.222-11.425,33.362-18.736
	l5.025-2.287c4.875,0,7.312,2.594,7.312,7.771c0,0.608-0.151,1.218-0.457,1.828c-6.703,36.864-11.272,61.389-13.711,73.577
	c-3.35,14.929-17.975,27.344-43.871,37.246C318.502,479.55,288.035,484.5,253,484.5c-35.037,0-65.505-4.95-91.4-14.852
	c-25.896-9.902-40.37-22.317-43.416-37.246C112.396,403.459,107.674,378.933,104.017,358.825z M126.41,86.453
	c0,7.312,12.416,13.634,37.245,18.966c24.832,5.331,54.611,7.998,89.346,7.998c35.036,0,64.97-2.59,89.8-7.769
	c24.831-5.18,37.245-11.426,37.245-18.738c0-7.616-12.414-14.09-37.245-19.424c-24.83-5.33-54.764-7.996-89.8-7.996
	c-35.037,0-64.896,2.59-89.572,7.77S126.41,78.837,126.41,86.453z M189.933,247.774c0,17.365,6.169,32.217,18.509,44.557
	C220.779,304.67,235.633,310.84,253,310.84c17.366,0,32.218-6.17,44.557-18.509c12.339-12.34,18.508-27.191,18.508-44.557
	c0-17.366-6.169-32.219-18.508-44.558s-27.19-18.509-44.557-18.509c-17.367,0-32.221,6.17-44.559,18.509
	C196.103,215.556,189.933,230.408,189.933,247.774z M221.467,247.774c0,8.53,3.047,15.919,9.14,22.163
	c6.094,6.247,13.559,9.369,22.395,9.369c8.834,0,16.299-3.122,22.392-9.369c6.093-6.243,9.143-13.633,9.143-22.163
	c0-8.531-3.05-15.919-9.143-22.164c-6.093-6.247-13.558-9.369-22.392-9.369c-8.836,0-16.3,3.123-22.395,9.369
	C224.514,231.855,221.467,239.243,221.467,247.774z"/>
</svg>
