<?xml version="1.0" encoding="utf-8"?>
<!-- Generator: Adobe Illustrator 16.0.4, SVG Export Plug-In . SVG Version: 6.00 Build 0)  -->
<!DOCTYPE svg PUBLIC "-//W3C//DTD SVG 1.1//EN" "http://www.w3.org/Graphics/SVG/1.1/DTD/svg11.dtd">
<svg version="1.1" xmlns="http://www.w3.org/2000/svg" xmlns:xlink="http://www.w3.org/1999/xlink" x="0px" y="0px" width="512px"
	 height="512px" viewBox="0 0 512 512" enable-background="new 0 0 512 512" xml:space="preserve">
<g id="Layer_1" display="none">
	<path id="path14499" display="inline" fill="#003087" d="M388.255,64.393c-21.085-24.034-59.201-34.337-107.962-34.337H138.774
		c-9.977,0-18.454,7.256-20.016,17.093L59.834,420.866c-1.171,7.368,4.534,14.045,12.004,14.045h87.368l21.942-139.177l-0.68,4.359
		c1.562-9.838,9.977-17.094,19.94-17.094h41.517c81.561,0,145.423-33.127,164.08-128.96c0.553-2.834,1.031-5.592,1.447-8.289
		c-2.355-1.246-2.355-1.246,0,0C413.008,110.331,407.412,86.221,388.255,64.393"/>
	<path id="path14527" display="inline" fill="#003087" d="M388.255,64.393c-21.085-24.034-59.201-34.337-107.962-34.337H138.774
		c-9.977,0-18.454,7.256-20.016,17.093L59.834,420.866c-1.171,7.368,4.534,14.045,12.004,14.045h87.368l21.942-139.177l-0.68,4.359
		c1.562-9.838,9.977-17.094,19.94-17.094h41.517c81.561,0,145.423-33.127,164.08-128.96c0.553-2.834,1.031-5.592,1.447-8.289
		c-2.355-1.246-2.355-1.246,0,0C413.008,110.331,407.412,86.221,388.255,64.393"/>
	<path id="path14531" display="inline" fill="#002F86" d="M204.73,146.221c0.932-5.919,4.736-10.769,9.851-13.227
		c2.331-1.106,4.925-1.725,7.646-1.725h110.947c13.139,0,25.395,0.857,36.593,2.658c3.213,0.517,6.323,1.11,9.347,1.79
		c3.022,0.666,5.959,1.423,8.805,2.254c1.423,0.416,2.821,0.844,4.195,1.298c5.504,1.838,10.63,3.981,15.342,6.486
		c5.555-35.433-0.042-59.529-19.196-81.359c-21.1-24.033-59.203-34.336-107.964-34.336H138.764c-9.963,0-18.44,7.255-20.002,17.093
		L59.836,420.856c-1.17,7.382,4.535,14.046,11.992,14.046h87.381l21.942-139.177L204.73,146.221z"/>
	<path id="path14535" display="inline" fill="#009CDE" d="M407.455,145.751L407.455,145.751c-0.428,2.708-0.896,5.455-1.449,8.289
		C387.351,249.86,323.489,283,241.928,283h-41.53c-9.963,0-18.378,7.256-19.927,17.094l-21.262,134.805l-6.034,38.242
		c-1.02,6.449,3.968,12.294,10.493,12.294h73.649c8.717,0,16.136-6.349,17.497-14.952l0.72-3.754l13.88-87.972l0.894-4.862
		c1.361-8.604,8.781-14.952,17.498-14.952h11.021c71.345,0,127.211-28.982,143.534-112.812c6.814-35.029,3.287-64.279-14.737-84.822
		C422.155,155.085,415.366,149.947,407.455,145.751"/>
	<path id="path14539" display="inline" fill="#012069" d="M387.921,137.966c-2.846-0.832-5.781-1.586-8.805-2.254
		s-6.147-1.259-9.346-1.776c-11.211-1.814-23.453-2.67-36.605-2.67H222.231c-2.733,0-5.329,0.617-7.646,1.737
		c-5.127,2.456-8.918,7.293-9.851,13.225l-23.581,149.506l-0.68,4.357c1.55-9.836,9.963-17.094,19.928-17.094h41.529
		c81.561,0,145.423-33.127,164.079-128.96c0.555-2.833,1.021-5.58,1.449-8.287c-4.725-2.495-9.839-4.648-15.342-6.474
		C390.743,138.821,389.344,138.381,387.921,137.966"/>
</g>
<g id="Layer_2" display="none">
	<g display="inline">
		<g>
			<path fill="#003087" d="M387.863,66.032c-20.953-23.867-58.829-34.105-107.27-34.105h-140.61c-9.921,0-18.338,7.21-19.898,16.981
				l-58.561,371.37c-1.151,7.329,4.5,13.949,11.919,13.949h86.813l21.811-138.289l-0.677,4.326c1.56-9.77,9.914-16.98,19.828-16.98
				h41.264c81.02,0,144.498-32.931,163.039-128.161c0.529-2.803,1.03-5.536,1.442-8.211
				C412.467,111.714,406.904,87.726,387.863,66.032"/>
		</g>
		<path fill="#009CDE" d="M406.964,146.912c-0.442,2.675-0.883,5.408-1.442,8.211c-18.541,95.23-81.991,128.161-163.039,128.161
			h-41.286c-9.892,0-18.246,7.211-19.776,16.98l-21.134,133.963l-6.003,37.994c-1.034,6.415,3.939,12.213,10.418,12.213h73.195
			c8.648,0,16.039-6.298,17.385-14.861l0.71-3.709l13.803-87.435l0.883-4.826c1.354-8.563,8.712-14.862,17.393-14.862h10.947
			c70.896,0,126.4-28.812,142.616-112.097c6.769-34.815,3.267-63.865-14.626-84.289
			C421.561,156.179,414.821,151.054,406.964,146.912"/>
		<path fill="#012169" d="M387.54,139.165c-2.825-0.82-5.738-1.589-8.741-2.229c-3.001-0.677-6.121-1.265-9.299-1.769
			c-11.125-1.825-23.309-2.674-36.375-2.674H222.908c-2.733,0-5.297,0.617-7.615,1.732c-5.095,2.438-8.862,7.239-9.774,13.155
			l-23.429,148.559l-0.669,4.326c1.53-9.77,9.884-16.98,19.798-16.98h41.264c81.048,0,144.498-32.931,163.039-128.161
			c0.56-2.803,1-5.536,1.442-8.211c-4.71-2.501-9.771-4.628-15.245-6.449C390.336,140.025,388.952,139.58,387.54,139.165"/>
	</g>
</g>
<g id="Layer_3">
	<path id="path14519" fill="#002F86" d="M277.686,231.351h-17.482c-1.671,0-3.235,0.829-4.172,2.214l-24.116,35.514l-10.218-34.127
		c-0.641-2.135-2.608-3.601-4.837-3.601h-17.181c-2.075,0-3.536,2.042-2.866,4.003l19.246,56.502l-18.104,25.545
		c-1.418,2.004,0.015,4.776,2.473,4.776h17.462c1.653,0,3.203-0.81,4.149-2.168l58.133-83.906
		C281.562,234.095,280.128,231.351,277.686,231.351 M160.818,265.201c-1.681,9.938-9.567,16.61-19.63,16.61
		c-5.043,0-9.084-1.624-11.679-4.695c-2.571-3.045-3.54-7.386-2.726-12.213c1.564-9.854,9.581-16.737,19.49-16.737
		c4.94,0,8.948,1.639,11.595,4.739C160.533,256.028,161.582,260.393,160.818,265.201 M185.056,231.351h-17.392
		c-1.488,0-2.758,1.082-2.992,2.556l-0.764,4.861l-1.213-1.761c-3.77-5.464-12.166-7.296-20.548-7.296
		c-19.213,0-35.626,14.563-38.82,34.985c-1.662,10.189,0.698,19.926,6.477,26.72c5.306,6.243,12.878,8.841,21.901,8.841
		c15.49,0,24.079-9.945,24.079-9.945l-0.777,4.832c-0.291,1.836,1.128,3.498,2.992,3.498h15.66c2.486,0,4.598-1.803,4.986-4.256
		l9.403-59.537C188.339,233.013,186.915,231.351,185.056,231.351 M80.69,231.769c-1.986,13.037-11.941,13.037-21.574,13.037h-5.479
		l3.844-24.342c0.229-1.47,1.499-2.552,2.988-2.552h2.515c6.556,0,12.747,0,15.94,3.732
		C80.835,223.878,81.411,227.193,80.69,231.769 M76.499,197.753H40.18c-2.486,0-4.598,1.808-4.988,4.261l-14.685,93.131
		c-0.291,1.835,1.128,3.498,2.987,3.498H40.84c2.482,0,4.594-1.808,4.982-4.258l3.966-25.128c0.384-2.453,2.501-4.262,4.983-4.262
		h11.491c23.924,0,37.734-11.574,41.339-34.525c1.625-10.03,0.066-17.916-4.631-23.437
		C97.805,200.965,88.651,197.753,76.499,197.753"/>
	<path id="path14523" fill="#009CDE" d="M464.604,200.312l-14.905,94.836c-0.289,1.835,1.129,3.497,2.988,3.497h14.994
		c2.481,0,4.599-1.808,4.983-4.261l14.698-93.131c0.29-1.835-1.129-3.498-2.992-3.498h-16.774
		C466.103,197.755,464.833,198.837,464.604,200.312 M419.867,265.201c-1.681,9.938-9.566,16.61-19.63,16.61
		c-5.043,0-9.086-1.624-11.678-4.695c-2.576-3.045-3.542-7.386-2.727-12.213c1.564-9.854,9.581-16.737,19.49-16.737
		c4.94,0,8.948,1.639,11.593,4.739C419.582,256.028,420.631,260.393,419.867,265.201 M444.105,231.351h-17.392
		c-1.489,0-2.759,1.082-2.992,2.556l-0.763,4.861l-1.218-1.761c-3.766-5.464-12.161-7.296-20.544-7.296
		c-19.214,0-35.627,14.563-38.82,34.985c-1.663,10.189,0.698,19.926,6.476,26.72c5.307,6.243,12.879,8.841,21.902,8.841
		c15.49,0,24.078-9.945,24.078-9.945l-0.776,4.832c-0.291,1.836,1.129,3.498,2.992,3.498h15.659c2.485,0,4.599-1.803,4.987-4.256
		l9.402-59.537C447.389,233.013,445.966,231.351,444.105,231.351 M339.739,231.769c-1.986,13.037-11.94,13.037-21.573,13.037h-5.479
		l3.845-24.342c0.23-1.47,1.499-2.552,2.988-2.552h2.514c6.557,0,12.747,0,15.941,3.732
		C339.884,223.878,340.46,227.193,339.739,231.769 M335.548,197.753h-36.318c-2.487,0-4.6,1.808-4.987,4.261l-14.686,93.131
		c-0.292,1.835,1.132,3.498,2.987,3.498h18.638c1.736,0,3.217-1.265,3.488-2.979l4.168-26.406c0.384-2.453,2.501-4.262,4.982-4.262
		h11.491c23.925,0,37.734-11.574,41.34-34.525c1.625-10.03,0.065-17.916-4.631-23.437
		C356.854,200.965,347.699,197.753,335.548,197.753"/>
</g>
</svg>
