<?xml version="1.0" encoding="utf-8"?>
<!-- Generated by IcoMoon.io -->
<!DOCTYPE svg PUBLIC "-//W3C//DTD SVG 1.1//EN" "http://www.w3.org/Graphics/SVG/1.1/DTD/svg11.dtd">
<svg version="1.1" xmlns="http://www.w3.org/2000/svg" xmlns:xlink="http://www.w3.org/1999/xlink" width="768" height="768" viewBox="0 0 768 768">
<g id="icomoon-ignore">
</g>
<path d="M223.5 288h160.5v31.5h-160.5v-31.5zM304.5 448.5c79.5 0 144-64.5 144-144s-64.5-144-144-144-144 64.5-144 144 64.5 144 144 144zM496.5 448.5l159 159-48 48-159-159v-25.5l-9-9c-36 31.5-84 49.5-135 49.5-115.5 0-208.5-91.5-208.5-207s93-208.5 208.5-208.5 207 93 207 208.5c0 51-18 99-49.5 135l9 9h25.5z"></path>
</svg>
